<svg width="73" height="66" viewBox="0 0 73 66" fill="none" xmlns="http://www.w3.org/2000/svg">
<path d="M0 32.9541C0 51.2953 36.5 32.9541 36.5 32.9541C36.5 32.9541 0 14.6129 0 32.9541Z" fill="white"/>
<path d="M73 32.9541C73 51.2953 36.5 32.9541 36.5 32.9541C36.5 32.9541 73 14.6129 73 32.9541Z" fill="white"/>
<path d="M18.2501 64.5634C34.134 73.734 36.5 32.9536 36.5 32.9536C36.5 32.9536 2.36603 55.3928 18.2501 64.5634Z" fill="white"/>
<path d="M54.7501 1.34402C70.634 10.5144 36.5 32.9536 36.5 32.9536C36.5 32.9536 38.866 -7.82709 54.7501 1.34352V1.34402Z" fill="white"/>
<path d="M54.7499 64.5634C38.866 73.734 36.5 32.9536 36.5 32.9536C36.5 32.9536 70.634 55.3928 54.7499 64.5634Z" fill="white"/>
<path d="M18.2499 1.34398C2.36602 10.5143 36.5 32.9535 36.5 32.9535C36.5 32.9535 34.134 -7.82662 18.2499 1.34398Z" fill="white"/>
</svg>
